# xmcd
#
# Track frame offsets:
#	183
#	9600
#	24838
#	37050
#	47218
#	59353
#	70620
#	84460
#	96620
#	110648
#
# Disc length: 1683
#
# Revision: 2
# Processed by: cddbd v1.5.1PL0 Copyright (c) Steve Scherf et al.
# Submitted via: CDValet v3.01 - Copyright (c) 1997 Greg Leichner
# Normalized: r1:DSETVAR1,TDELIM( - )
#
DISCID=8306910a
DTITLE=Various Artist - A Christmas Tradition Vol. II
DYEAR=1900
DGENRE=
TTITLE0=Rockin' Around The Christmas Tree - Rosie Flores
TTITLE1=Silver Bells - Jim Horn
TTITLE2=Blue Christmas - Highway 101
TTITLE3=Santa Claus Is Coming To Town - Michael Martin Murphey
TTITLE4=Oh Little Town Of Bethlehem - The McCarters
TTITLE5=Jingle Bells - The A-Strings
TTITLE6=Run Rudolph Run - Southern Pacific
TTITLE7=Santa Claus Is Back In Town - Dwight Yoakam
TTITLE8=I'll Be Home For Christmas - The Forrester Sister
TTITLE9=What Child Is This - Mark O'Conner
EXTD=
EXTT0=
EXTT1=
EXTT2=
EXTT3=
EXTT4=
EXTT5=
EXTT6=
EXTT7=
EXTT8=
EXTT9=
PLAYORDER=
